<?xml version="1.0" standalone="no"?>
<!DOCTYPE svg PUBLIC "-//W3C//DTD SVG 20010904//EN"
 "http://www.w3.org/TR/2001/REC-SVG-20010904/DTD/svg10.dtd">
<svg version="1.0" xmlns="http://www.w3.org/2000/svg"
 width="2363.000000pt" height="2363.000000pt" viewBox="0 0 2363.000000 2363.000000"
 preserveAspectRatio="xMidYMid meet">

<g transform="translate(0.000000,2363.000000) scale(0.100000,-0.100000)"
fill="#ffffff" stroke="none">
<path d="M5468 16580 c-86 -46 -119 -150 -74 -237 6 -12 154 -168 329 -347
l318 -325 -65 -84 c-170 -224 -259 -453 -286 -734 -31 -332 74 -685 285 -959
84 -109 1767 -1846 1803 -1861 57 -24 87 -5 224 135 183 188 278 340 353 566
48 144 67 266 67 431 -1 364 -131 685 -385 952 -379 399 -1274 1311 -1300
1326 -40 22 -118 22 -164 0 -75 -35 -113 -148 -76 -225 10 -20 298 -324 663
-699 355 -364 669 -692 698 -728 65 -80 154 -258 184 -366 18 -68 22 -107 22
-260 1 -213 -14 -288 -94 -450 -50 -103 -135 -229 -150 -223 -17 6 -1516 1552
-1568 1617 -67 84 -143 232 -179 347 -26 84 -27 100 -27 279 0 164 3 201 22
268 66 238 223 456 424 590 107 72 197 112 318 145 82 22 117 25 250 26 128 0
170 -3 243 -22 300 -75 538 -263 677 -533 67 -130 98 -244 112 -406 8 -101 16
-141 32 -170 64 -113 239 -108 304 10 37 69 10 346 -54 536 -62 186 -171 364
-311 512 -369 387 -923 526 -1428 358 -66 -22 -167 -65 -225 -95 l-104 -56
-111 114 c-61 62 -207 212 -324 332 -118 121 -230 228 -249 238 -46 23 -107
22 -154 -2z"/>
<path d="M11125 16063 c-353 -31 -660 -137 -941 -324 -147 -98 -352 -303 -451
-449 -208 -309 -323 -641 -374 -1080 -14 -128 -14 -490 0 -620 49 -433 214
-843 461 -1145 82 -100 231 -239 341 -318 113 -81 359 -206 487 -247 198 -64
384 -90 639 -90 484 0 873 128 1219 401 90 71 250 242 327 349 79 112 222 395
267 530 45 137 87 314 112 475 18 118 22 184 22 420 1 296 -6 374 -51 590 -48
234 -150 489 -276 690 -172 277 -431 507 -727 649 -191 91 -372 141 -592 165
-90 10 -369 12 -463 4z m529 -372 c565 -115 951 -501 1106 -1107 56 -221 73
-371 74 -644 1 -149 -4 -280 -12 -335 -64 -449 -206 -780 -441 -1028 -230
-241 -525 -384 -884 -428 -142 -17 -434 -6 -559 20 -276 60 -500 182 -698 380
-264 265 -429 641 -481 1100 -17 152 -7 504 20 656 73 425 223 738 476 991
209 210 454 342 732 393 156 29 159 30 373 25 144 -2 221 -8 294 -23z"/>
<path d="M13988 15980 c-56 -30 -82 -73 -86 -145 -4 -74 24 -129 83 -162 l40
-23 511 0 c425 0 513 -2 530 -14 19 -14 19 -47 24 -1833 l5 -1819 24 -36 c76
-111 237 -117 317 -12 l29 37 5 1820 5 1819 24 19 c22 18 46 19 531 19 l507 0
43 23 c118 62 119 239 2 305 l-40 22 -1258 0 c-1226 -1 -1260 -1 -1296 -20z"/>
<path d="M17945 15983 c-44 -23 -65 -44 -86 -85 -18 -36 -19 -93 -19 -1968 0
-1917 0 -1931 20 -1970 64 -126 254 -133 331 -12 l29 46 0 1933 c0 1763 -1
1937 -16 1966 -23 45 -44 66 -86 88 -46 23 -131 24 -173 2z"/>
<path d="M5750 13327 c-30 -16 -52 -37 -68 -68 -23 -42 -24 -50 -18 -174 16
-380 196 -740 491 -984 205 -168 424 -266 690 -308 194 -30 451 -6 589 55 99
44 115 194 30 274 -57 53 -116 60 -229 28 -233 -67 -613 34 -853 226 -219 175
-353 436 -368 719 -7 119 -18 160 -53 199 -54 59 -137 72 -211 33z"/>
<path d="M8490 10871 c0 -12 9 -21 25 -25 l25 -6 0 -180 0 -180 -25 -6 c-16
-4 -25 -13 -25 -25 0 -18 9 -19 125 -19 186 0 235 27 235 128 0 53 -24 96 -60
107 -17 6 -16 9 13 35 27 24 32 35 31 70 -2 52 -29 91 -75 107 -19 7 -87 12
-151 12 -109 1 -118 0 -118 -18z m251 -42 c46 -24 42 -105 -7 -128 -14 -6 -49
-11 -79 -11 l-55 0 0 75 0 75 61 0 c33 0 69 -5 80 -11z m30 -208 c11 -14 19
-39 19 -61 0 -58 -33 -80 -121 -80 l-69 0 0 86 0 86 76 -4 c65 -3 79 -7 95
-27z"/>
<path d="M9214 10853 c-9 -21 -43 -107 -75 -191 -69 -180 -75 -192 -94 -192
-8 0 -15 -9 -15 -20 0 -18 7 -20 65 -20 58 0 65 2 65 20 0 11 -7 20 -16 20
-16 0 -15 9 7 68 8 21 14 22 102 22 l94 0 11 -39 c15 -49 15 -51 -3 -51 -8 0
-15 -9 -15 -20 0 -18 7 -20 65 -20 58 0 65 2 65 19 0 11 -7 21 -16 23 -12 2
-41 68 -94 208 -72 190 -80 205 -104 208 -22 3 -29 -3 -42 -35z m106 -234 c0
-5 -32 -9 -71 -9 -64 0 -70 2 -64 18 4 9 21 55 37 101 l31 84 33 -93 c19 -51
34 -96 34 -101z"/>
<path d="M9650 10871 c0 -12 9 -21 25 -25 l25 -6 0 -180 0 -180 -25 -6 c-16
-4 -25 -13 -25 -25 0 -17 8 -19 80 -19 72 0 80 2 80 19 0 12 -9 21 -25 25 -24
6 -25 9 -25 86 l0 80 48 0 48 0 45 -102 c45 -102 45 -103 82 -106 29 -3 37 0
37 13 0 9 -8 24 -18 33 -10 10 -34 50 -53 91 -28 61 -31 75 -19 79 8 3 27 18
42 33 23 23 28 36 28 79 0 103 -48 130 -230 130 -111 0 -120 -1 -120 -19z
m253 -42 c30 -16 37 -28 37 -70 0 -53 -25 -71 -110 -77 l-70 -5 0 82 0 81 61
0 c33 0 70 -5 82 -11z"/>
<path d="M10220 10871 c0 -12 9 -21 25 -25 l25 -6 0 -180 0 -180 -25 -6 c-16
-4 -25 -13 -25 -25 0 -18 9 -19 125 -19 186 0 235 27 235 128 0 53 -24 96 -60
107 -17 6 -16 9 13 35 27 24 32 35 31 70 -2 52 -29 91 -75 107 -19 7 -87 12
-151 12 -109 1 -118 0 -118 -18z m251 -42 c46 -24 42 -105 -7 -128 -14 -6 -49
-11 -79 -11 l-55 0 0 75 0 75 61 0 c33 0 69 -5 80 -11z m30 -208 c11 -14 19
-39 19 -61 0 -58 -33 -80 -121 -80 l-69 0 0 86 0 86 76 -4 c65 -3 79 -7 95
-27z"/>
<path d="M10770 10871 c0 -12 9 -21 25 -25 l25 -6 0 -180 0 -180 -25 -6 c-16
-4 -25 -13 -25 -25 0 -18 10 -19 170 -19 l170 0 0 55 c0 49 -2 55 -20 55 -15
0 -22 -9 -26 -30 l-6 -30 -89 0 -89 0 0 80 0 80 85 0 c84 0 85 0 85 25 0 25
-1 25 -85 25 l-85 0 0 75 0 75 84 0 84 0 6 -30 c4 -21 11 -30 26 -30 18 0 20
6 20 55 l0 55 -165 0 c-155 0 -165 -1 -165 -19z"/>
<path d="M11310 10871 c0 -12 9 -21 25 -25 l25 -6 0 -180 0 -180 -25 -6 c-16
-4 -25 -13 -25 -25 0 -17 8 -19 80 -19 72 0 80 2 80 19 0 12 -9 21 -25 25 -24
6 -25 9 -25 86 l0 80 48 0 48 0 45 -102 c45 -102 45 -103 82 -106 29 -3 37 0
37 13 0 9 -8 24 -18 33 -10 10 -34 50 -53 91 -28 61 -31 75 -19 79 8 3 27 18
42 33 23 23 28 36 28 79 0 103 -48 130 -230 130 -111 0 -120 -1 -120 -19z
m253 -42 c30 -16 37 -28 37 -70 0 -53 -25 -71 -110 -77 l-70 -5 0 82 0 81 61
0 c33 0 70 -5 82 -11z"/>
<path d="M12236 10871 c-38 -25 -55 -57 -56 -103 0 -58 43 -100 132 -128 85
-26 118 -52 118 -92 0 -59 -73 -91 -152 -67 -38 12 -44 18 -48 49 -4 27 -10
36 -27 38 -21 3 -23 0 -23 -47 0 -49 1 -51 42 -72 29 -15 61 -22 103 -22 103
-1 165 45 165 123 0 68 -44 108 -160 145 -68 22 -90 40 -90 77 0 59 75 93 143
65 27 -12 36 -22 39 -44 2 -20 9 -29 26 -31 22 -3 23 -1 20 45 -3 44 -6 50
-38 65 -50 25 -155 24 -194 -1z"/>
<path d="M12680 10835 c0 -52 1 -55 25 -55 21 0 25 5 25 30 0 30 1 30 55 30
l55 0 0 -180 0 -180 -25 -6 c-16 -4 -25 -13 -25 -25 0 -17 8 -19 80 -19 72 0
80 2 80 19 0 12 -9 21 -25 25 l-25 6 0 180 0 180 54 0 c52 0 55 -1 58 -27 2
-20 9 -29 26 -31 21 -3 22 0 22 52 l0 56 -190 0 -190 0 0 -55z"/>
<path d="M13240 10871 c0 -12 9 -21 24 -25 24 -6 24 -7 28 -158 3 -172 14
-205 77 -242 45 -26 136 -26 181 0 69 40 75 58 79 235 3 158 3 159 27 165 15
4 24 13 24 25 0 17 -8 19 -85 19 -77 0 -85 -2 -85 -19 0 -14 9 -21 31 -26 l30
-7 -3 -148 c-3 -133 -5 -152 -24 -177 -41 -55 -127 -55 -168 0 -19 25 -21 45
-24 177 l-4 148 31 7 c22 5 31 12 31 26 0 17 -8 19 -85 19 -77 0 -85 -2 -85
-19z"/>
<path d="M13860 10871 c0 -12 9 -21 25 -25 l25 -6 0 -180 0 -180 -25 -6 c-16
-4 -25 -13 -25 -26 0 -19 6 -20 123 -17 112 4 127 6 160 29 20 14 49 48 64 75
36 66 39 177 6 240 -47 90 -101 115 -248 115 -96 0 -105 -2 -105 -19z m250
-57 c47 -40 64 -80 64 -154 0 -114 -55 -180 -150 -180 l-54 0 0 180 0 180 54
0 c44 0 60 -5 86 -26z"/>
<path d="M14420 10871 c0 -12 9 -21 25 -25 l25 -6 0 -180 0 -180 -25 -6 c-16
-4 -25 -13 -25 -25 0 -17 8 -19 80 -19 72 0 80 2 80 19 0 12 -9 21 -25 25
l-25 6 0 180 0 180 25 6 c16 4 25 13 25 25 0 17 -8 19 -80 19 -72 0 -80 -2
-80 -19z"/>
<path d="M14865 10878 c-36 -19 -67 -52 -88 -93 -28 -54 -30 -193 -3 -245 40
-78 93 -113 171 -113 80 0 138 40 170 115 17 43 20 164 5 220 -13 44 -52 93
-91 113 -33 17 -135 19 -164 3z m158 -65 c32 -29 47 -78 47 -155 0 -118 -44
-182 -125 -182 -47 0 -79 20 -103 63 -59 108 -20 275 71 299 37 10 82 0 110
-25z"/>
</g>
</svg>
